# xmcd
#
# Track frame offsets:
#	150
#	17676
#	37944
#	49039
#	68235
#	84288
#	99756
#	115752
#	129729
#	146602
#	162658
#	181143
#	202003
#	215401
#	242576
#
# Disc length: 4439 seconds
#
# Revision: 1
# Processed by: cddbd v1.4PL0 Copyright (c) Steve Scherf et al.
# Submitted via: EasyCDDAExtractor 5.1.0
#
DISCID=c711550f
DTITLE=дглгтягс лпасгс - пяосыпийо ALBOUM
DYEAR=2003
DGENRE=Ethnic
TTITLE0=г фыг
TTITLE1=оуяаме
TTITLE2=сам тсицаяо лоу
TTITLE3=йи ежуца
TTITLE4=ыпа яе паидиа
TTITLE5=ьелла поу мувтысе
TTITLE6=айоу
TTITLE7=намхг
TTITLE8=тяиамтажукко
TTITLE9=паяапомелема латиа
TTITLE10=лацисса
TTITLE11=ламедайи
TTITLE12=сам олпяекка
TTITLE13=амахела се
TTITLE14=ацмысто
EXTD=
EXTT0=
EXTT1=
EXTT2=
EXTT3=
EXTT4=
EXTT5=
EXTT6=
EXTT7=
EXTT8=
EXTT9=
EXTT10=
EXTT11=
EXTT12=
EXTT13=
EXTT14=
PLAYORDER=
